<?xml version="1.0" standalone="no"?>
<!DOCTYPE svg PUBLIC "-//W3C//DTD SVG 20010904//EN"
 "http://www.w3.org/TR/2001/REC-SVG-20010904/DTD/svg10.dtd">
<svg version="1.0" xmlns="http://www.w3.org/2000/svg"
 width="512.000000pt" height="512.000000pt" viewBox="0 0 512.000000 512.000000"
 preserveAspectRatio="xMidYMid meet">

<g transform="translate(0.000000,512.000000) scale(0.100000,-0.100000)"
fill="#000000" stroke="none">
<path d="M1225 4885 c-51 -18 -93 -67 -100 -119 -4 -23 -5 -149 -3 -281 3
-233 4 -241 26 -273 30 -42 71 -62 138 -69 l54 -6 0 -125 0 -126 -43 -55 c-56
-72 -58 -76 -51 -94 7 -19 29 -28 49 -21 8 4 37 34 65 69 l50 63 0 146 0 146
470 0 470 0 0 -145 0 -145 313 -380 c171 -209 326 -404 342 -433 l30 -52 3
-621 3 -621 -55 -27 c-69 -34 -139 -110 -163 -179 -16 -47 -18 -92 -18 -483
l0 -431 32 -62 32 -62 -37 -17 c-34 -16 -115 -17 -947 -17 -875 0 -912 1 -960
19 -65 26 -147 103 -176 169 l-24 52 -3 1109 c-2 994 -1 1115 14 1165 18 63
43 100 148 226 76 91 86 111 64 133 -26 26 -49 9 -143 -105 -108 -133 -141
-192 -155 -279 -14 -82 -13 -2149 0 -2233 28 -169 160 -302 331 -331 44 -7
337 -10 944 -8 l880 3 67 28 67 28 40 -21 c67 -34 132 -43 198 -29 32 7 103
12 158 10 96 -2 103 -1 170 32 152 74 682 370 709 395 43 41 75 96 91 160 60
224 -155 439 -382 383 -26 -7 -138 -61 -248 -121 -110 -60 -208 -112 -217
-115 -15 -6 -17 10 -20 187 -3 181 -4 196 -27 243 -48 95 -141 165 -244 180
l-46 7 -3 623 -3 622 -35 67 c-22 43 -146 203 -342 441 l-308 374 0 129 0 129
55 6 c68 7 118 36 139 82 15 30 17 71 14 309 l-3 275 -35 36 c-19 19 -50 40
-70 45 -21 6 -276 10 -650 10 -503 -1 -622 -3 -655 -15z m2454 -3989 c61 -113
111 -208 111 -213 0 -15 -335 -192 -385 -203 -26 -6 -49 -9 -51 -7 -2 2 8 19
22 38 54 72 58 90 64 314 l5 209 55 32 c30 18 58 33 61 33 4 1 57 -91 118
-203z m-319 -36 c0 -233 -5 -258 -63 -318 -77 -80 -187 -100 -282 -51 -56 28
-109 91 -125 147 -5 20 -10 126 -10 235 l0 197 240 0 240 0 0 -210z"/>
<path d="M1083 3571 c-107 -130 -110 -135 -93 -156 27 -32 56 -13 144 95 86
105 96 126 74 148 -24 24 -46 10 -125 -87z"/>
<path d="M1620 2550 c-19 -19 -20 -33 -20 -205 l0 -185 -188 0 c-133 0 -192
-4 -200 -12 -9 -9 -12 -73 -12 -225 0 -200 1 -213 19 -223 12 -6 95 -10 200
-10 l181 0 0 -181 c0 -105 4 -188 10 -200 10 -18 23 -19 223 -19 152 0 216 3
225 12 8 8 12 67 12 200 l0 188 185 0 c244 0 225 -20 225 236 0 115 -4 203
-10 215 -10 18 -23 19 -205 19 l-195 0 0 195 c0 182 -1 195 -19 205 -12 6
-100 10 -215 10 -183 0 -197 -1 -216 -20z m370 -258 c0 -133 4 -192 12 -200 8
-8 67 -12 200 -12 l188 0 0 -150 0 -150 -184 0 c-154 0 -187 -3 -200 -16 -13
-13 -16 -46 -16 -205 l0 -189 -150 0 -150 0 0 185 c0 172 -1 186 -20 205 -19
19 -33 20 -205 20 l-185 0 0 150 0 150 189 0 c185 0 190 1 205 22 13 18 16 56
16 200 l0 178 150 0 150 0 0 -188z"/>
</g>
</svg>
